<mxfile host="app.diagrams.net" modified="2022-07-05T06:08:23.995Z" agent="5.0 (Macintosh; Intel Mac OS X 10_15_7) AppleWebKit/537.36 (KHTML, like Gecko) Chrome/103.0.0.0 Safari/537.36" etag="Z1NfGWmlcX4Dbnz-kJ17" version="20.0.4" type="github">
  <diagram id="YuhhQvLzDPB0U2GF9P-1" name="Page-1">
    <mxGraphModel dx="2163" dy="1390" grid="1" gridSize="10" guides="1" tooltips="1" connect="1" arrows="1" fold="1" page="1" pageScale="1" pageWidth="3300" pageHeight="4681" math="0" shadow="0">
      <root>
        <mxCell id="0" />
        <mxCell id="1" parent="0" />
        <mxCell id="pe_uEWkKQalwWE7tFgN7-95" value="" style="rounded=0;whiteSpace=wrap;html=1;strokeColor=#d6b656;fillColor=#fff2cc;" vertex="1" parent="1">
          <mxGeometry x="1315" y="510" width="150" height="270" as="geometry" />
        </mxCell>
        <mxCell id="pe_uEWkKQalwWE7tFgN7-93" style="edgeStyle=orthogonalEdgeStyle;rounded=1;jumpStyle=arc;orthogonalLoop=1;jettySize=auto;html=1;exitX=1;exitY=0.5;exitDx=0;exitDy=0;entryX=0;entryY=0.75;entryDx=0;entryDy=0;" edge="1" parent="1" source="pe_uEWkKQalwWE7tFgN7-82" target="pe_uEWkKQalwWE7tFgN7-92">
          <mxGeometry relative="1" as="geometry" />
        </mxCell>
        <mxCell id="pe_uEWkKQalwWE7tFgN7-55" value="" style="rounded=0;whiteSpace=wrap;html=1;fillColor=#f8cecc;strokeColor=#b85450;" vertex="1" parent="1">
          <mxGeometry x="835" y="280" width="155" height="250" as="geometry" />
        </mxCell>
        <mxCell id="pe_uEWkKQalwWE7tFgN7-50" value="" style="rounded=0;whiteSpace=wrap;html=1;fillColor=#fff2cc;strokeColor=#d6b656;" vertex="1" parent="1">
          <mxGeometry x="600" y="250" width="200" height="700" as="geometry" />
        </mxCell>
        <mxCell id="pe_uEWkKQalwWE7tFgN7-18" value="" style="rounded=0;whiteSpace=wrap;html=1;fillColor=#fff2cc;strokeColor=#d6b656;" vertex="1" parent="1">
          <mxGeometry x="340" y="155" width="180" height="725" as="geometry" />
        </mxCell>
        <mxCell id="pe_uEWkKQalwWE7tFgN7-2" value="hbase" style="shape=cylinder3;whiteSpace=wrap;html=1;boundedLbl=1;backgroundOutline=1;size=15;" vertex="1" parent="1">
          <mxGeometry x="610" y="140" width="60" height="80" as="geometry" />
        </mxCell>
        <mxCell id="pe_uEWkKQalwWE7tFgN7-7" style="edgeStyle=orthogonalEdgeStyle;rounded=0;orthogonalLoop=1;jettySize=auto;html=1;exitX=0.5;exitY=1;exitDx=0;exitDy=0;entryX=0.5;entryY=0;entryDx=0;entryDy=0;" edge="1" parent="1" source="pe_uEWkKQalwWE7tFgN7-5" target="pe_uEWkKQalwWE7tFgN7-6">
          <mxGeometry relative="1" as="geometry" />
        </mxCell>
        <mxCell id="pe_uEWkKQalwWE7tFgN7-8" style="edgeStyle=orthogonalEdgeStyle;rounded=1;orthogonalLoop=1;jettySize=auto;html=1;exitX=1;exitY=0.5;exitDx=0;exitDy=0;entryX=0;entryY=0;entryDx=0;entryDy=52.5;entryPerimeter=0;" edge="1" parent="1" source="pe_uEWkKQalwWE7tFgN7-5" target="pe_uEWkKQalwWE7tFgN7-2">
          <mxGeometry relative="1" as="geometry" />
        </mxCell>
        <mxCell id="pe_uEWkKQalwWE7tFgN7-5" value="获取全量area" style="rounded=1;whiteSpace=wrap;html=1;" vertex="1" parent="1">
          <mxGeometry x="370.5" y="220" width="119.5" height="40" as="geometry" />
        </mxCell>
        <mxCell id="pe_uEWkKQalwWE7tFgN7-10" style="edgeStyle=orthogonalEdgeStyle;rounded=1;orthogonalLoop=1;jettySize=auto;html=1;exitX=0.5;exitY=1;exitDx=0;exitDy=0;entryX=0.5;entryY=0;entryDx=0;entryDy=0;" edge="1" parent="1" source="pe_uEWkKQalwWE7tFgN7-6" target="pe_uEWkKQalwWE7tFgN7-9">
          <mxGeometry relative="1" as="geometry" />
        </mxCell>
        <mxCell id="pe_uEWkKQalwWE7tFgN7-6" value="过滤&lt;br&gt;lastSyncedRowKey" style="rounded=1;whiteSpace=wrap;html=1;" vertex="1" parent="1">
          <mxGeometry x="370.5" y="277" width="120" height="50" as="geometry" />
        </mxCell>
        <mxCell id="pe_uEWkKQalwWE7tFgN7-13" style="edgeStyle=orthogonalEdgeStyle;rounded=1;orthogonalLoop=1;jettySize=auto;html=1;exitX=1;exitY=0.5;exitDx=0;exitDy=0;entryX=0;entryY=0.5;entryDx=0;entryDy=0;" edge="1" parent="1" source="pe_uEWkKQalwWE7tFgN7-9" target="pe_uEWkKQalwWE7tFgN7-12">
          <mxGeometry relative="1" as="geometry" />
        </mxCell>
        <mxCell id="pe_uEWkKQalwWE7tFgN7-17" style="edgeStyle=orthogonalEdgeStyle;rounded=1;orthogonalLoop=1;jettySize=auto;html=1;exitX=0.5;exitY=1;exitDx=0;exitDy=0;entryX=0.5;entryY=0;entryDx=0;entryDy=0;" edge="1" parent="1" source="pe_uEWkKQalwWE7tFgN7-9" target="pe_uEWkKQalwWE7tFgN7-15">
          <mxGeometry relative="1" as="geometry" />
        </mxCell>
        <mxCell id="pe_uEWkKQalwWE7tFgN7-9" value="获取每个area的hotellist" style="rounded=1;whiteSpace=wrap;html=1;" vertex="1" parent="1">
          <mxGeometry x="369.5" y="347" width="120.5" height="43" as="geometry" />
        </mxCell>
        <mxCell id="pe_uEWkKQalwWE7tFgN7-25" style="edgeStyle=orthogonalEdgeStyle;rounded=1;orthogonalLoop=1;jettySize=auto;html=1;exitX=1;exitY=0.5;exitDx=0;exitDy=0;entryX=0;entryY=0.5;entryDx=0;entryDy=0;" edge="1" parent="1" source="pe_uEWkKQalwWE7tFgN7-12" target="pe_uEWkKQalwWE7tFgN7-24">
          <mxGeometry relative="1" as="geometry" />
        </mxCell>
        <mxCell id="pe_uEWkKQalwWE7tFgN7-12" value="GetHotelList" style="rounded=1;whiteSpace=wrap;html=1;" vertex="1" parent="1">
          <mxGeometry x="625" y="280" width="110" height="40" as="geometry" />
        </mxCell>
        <mxCell id="pe_uEWkKQalwWE7tFgN7-14" value="" style="rounded=1;whiteSpace=wrap;html=1;" vertex="1" parent="1">
          <mxGeometry x="620" y="350" width="140" height="430" as="geometry" />
        </mxCell>
        <mxCell id="pe_uEWkKQalwWE7tFgN7-54" style="edgeStyle=orthogonalEdgeStyle;rounded=1;orthogonalLoop=1;jettySize=auto;html=1;exitX=1;exitY=0.5;exitDx=0;exitDy=0;" edge="1" parent="1" source="pe_uEWkKQalwWE7tFgN7-15" target="pe_uEWkKQalwWE7tFgN7-14">
          <mxGeometry relative="1" as="geometry" />
        </mxCell>
        <mxCell id="pe_uEWkKQalwWE7tFgN7-15" value="异步同步每个hotel&lt;br&gt;静态信息" style="rounded=1;whiteSpace=wrap;html=1;" vertex="1" parent="1">
          <mxGeometry x="369.5" y="420" width="120" height="50" as="geometry" />
        </mxCell>
        <mxCell id="pe_uEWkKQalwWE7tFgN7-22" style="edgeStyle=orthogonalEdgeStyle;rounded=1;orthogonalLoop=1;jettySize=auto;html=1;exitX=0.5;exitY=1;exitDx=0;exitDy=0;entryX=0.5;entryY=0;entryDx=0;entryDy=0;" edge="1" parent="1" source="pe_uEWkKQalwWE7tFgN7-20" target="pe_uEWkKQalwWE7tFgN7-21">
          <mxGeometry relative="1" as="geometry" />
        </mxCell>
        <mxCell id="pe_uEWkKQalwWE7tFgN7-20" value="遍历多语言" style="rounded=1;whiteSpace=wrap;html=1;" vertex="1" parent="1">
          <mxGeometry x="645" y="390" width="90" height="30" as="geometry" />
        </mxCell>
        <mxCell id="pe_uEWkKQalwWE7tFgN7-28" style="edgeStyle=orthogonalEdgeStyle;rounded=1;orthogonalLoop=1;jettySize=auto;html=1;exitX=0.5;exitY=1;exitDx=0;exitDy=0;entryX=0.5;entryY=0;entryDx=0;entryDy=0;" edge="1" parent="1" source="pe_uEWkKQalwWE7tFgN7-21" target="pe_uEWkKQalwWE7tFgN7-27">
          <mxGeometry relative="1" as="geometry" />
        </mxCell>
        <mxCell id="pe_uEWkKQalwWE7tFgN7-33" style="edgeStyle=orthogonalEdgeStyle;rounded=1;orthogonalLoop=1;jettySize=auto;html=1;exitX=1;exitY=0.5;exitDx=0;exitDy=0;entryX=0;entryY=0.5;entryDx=0;entryDy=0;" edge="1" parent="1" source="pe_uEWkKQalwWE7tFgN7-21" target="pe_uEWkKQalwWE7tFgN7-26">
          <mxGeometry relative="1" as="geometry" />
        </mxCell>
        <mxCell id="pe_uEWkKQalwWE7tFgN7-21" value="下载静态信息" style="rounded=1;whiteSpace=wrap;html=1;" vertex="1" parent="1">
          <mxGeometry x="645" y="440" width="90" height="30" as="geometry" />
        </mxCell>
        <mxCell id="pe_uEWkKQalwWE7tFgN7-24" value="feed5" style="rounded=1;whiteSpace=wrap;html=1;" vertex="1" parent="1">
          <mxGeometry x="860" y="330" width="110" height="40" as="geometry" />
        </mxCell>
        <mxCell id="pe_uEWkKQalwWE7tFgN7-26" value="feed19" style="rounded=1;whiteSpace=wrap;html=1;" vertex="1" parent="1">
          <mxGeometry x="860" y="395" width="110" height="35" as="geometry" />
        </mxCell>
        <mxCell id="pe_uEWkKQalwWE7tFgN7-34" style="edgeStyle=orthogonalEdgeStyle;rounded=1;orthogonalLoop=1;jettySize=auto;html=1;exitX=1;exitY=0.5;exitDx=0;exitDy=0;entryX=0;entryY=0.75;entryDx=0;entryDy=0;" edge="1" parent="1" source="pe_uEWkKQalwWE7tFgN7-27" target="pe_uEWkKQalwWE7tFgN7-32">
          <mxGeometry relative="1" as="geometry" />
        </mxCell>
        <mxCell id="pe_uEWkKQalwWE7tFgN7-52" style="edgeStyle=orthogonalEdgeStyle;rounded=1;orthogonalLoop=1;jettySize=auto;html=1;exitX=0.5;exitY=1;exitDx=0;exitDy=0;" edge="1" parent="1" source="pe_uEWkKQalwWE7tFgN7-27" target="pe_uEWkKQalwWE7tFgN7-35">
          <mxGeometry relative="1" as="geometry" />
        </mxCell>
        <mxCell id="pe_uEWkKQalwWE7tFgN7-27" value="下载附近信息" style="rounded=1;whiteSpace=wrap;html=1;" vertex="1" parent="1">
          <mxGeometry x="645" y="492" width="90" height="30" as="geometry" />
        </mxCell>
        <mxCell id="pe_uEWkKQalwWE7tFgN7-32" value="feed31" style="rounded=1;whiteSpace=wrap;html=1;" vertex="1" parent="1">
          <mxGeometry x="860" y="440" width="110" height="35" as="geometry" />
        </mxCell>
        <mxCell id="pe_uEWkKQalwWE7tFgN7-37" style="edgeStyle=orthogonalEdgeStyle;rounded=1;orthogonalLoop=1;jettySize=auto;html=1;exitX=1;exitY=0.5;exitDx=0;exitDy=0;entryX=0;entryY=0.5;entryDx=0;entryDy=0;entryPerimeter=0;" edge="1" parent="1" source="pe_uEWkKQalwWE7tFgN7-35" target="pe_uEWkKQalwWE7tFgN7-36">
          <mxGeometry relative="1" as="geometry">
            <mxPoint x="940" y="650" as="targetPoint" />
          </mxGeometry>
        </mxCell>
        <mxCell id="pe_uEWkKQalwWE7tFgN7-38" value="补充area" style="edgeLabel;html=1;align=center;verticalAlign=middle;resizable=0;points=[];" vertex="1" connectable="0" parent="pe_uEWkKQalwWE7tFgN7-37">
          <mxGeometry x="0.2561" y="1" relative="1" as="geometry">
            <mxPoint x="1" as="offset" />
          </mxGeometry>
        </mxCell>
        <mxCell id="pe_uEWkKQalwWE7tFgN7-43" style="edgeStyle=orthogonalEdgeStyle;rounded=1;orthogonalLoop=1;jettySize=auto;html=1;exitX=0.5;exitY=1;exitDx=0;exitDy=0;entryX=0.5;entryY=0;entryDx=0;entryDy=0;" edge="1" parent="1" source="pe_uEWkKQalwWE7tFgN7-35" target="pe_uEWkKQalwWE7tFgN7-41">
          <mxGeometry relative="1" as="geometry" />
        </mxCell>
        <mxCell id="pe_uEWkKQalwWE7tFgN7-35" value="解析适配下载信息&lt;br&gt;" style="rounded=1;whiteSpace=wrap;html=1;" vertex="1" parent="1">
          <mxGeometry x="635" y="560" width="110" height="35" as="geometry" />
        </mxCell>
        <mxCell id="pe_uEWkKQalwWE7tFgN7-36" value="hbase" style="shape=cylinder3;whiteSpace=wrap;html=1;boundedLbl=1;backgroundOutline=1;size=15;" vertex="1" parent="1">
          <mxGeometry x="880" y="580" width="60" height="80" as="geometry" />
        </mxCell>
        <mxCell id="pe_uEWkKQalwWE7tFgN7-40" style="edgeStyle=orthogonalEdgeStyle;rounded=1;orthogonalLoop=1;jettySize=auto;html=1;exitX=1;exitY=0.5;exitDx=0;exitDy=0;entryX=0;entryY=1;entryDx=0;entryDy=-15;entryPerimeter=0;" edge="1" parent="1" source="pe_uEWkKQalwWE7tFgN7-39" target="pe_uEWkKQalwWE7tFgN7-36">
          <mxGeometry relative="1" as="geometry" />
        </mxCell>
        <mxCell id="pe_uEWkKQalwWE7tFgN7-47" style="edgeStyle=orthogonalEdgeStyle;rounded=1;orthogonalLoop=1;jettySize=auto;html=1;exitX=0.5;exitY=1;exitDx=0;exitDy=0;entryX=0.5;entryY=0;entryDx=0;entryDy=0;" edge="1" parent="1" source="pe_uEWkKQalwWE7tFgN7-39" target="pe_uEWkKQalwWE7tFgN7-46">
          <mxGeometry relative="1" as="geometry" />
        </mxCell>
        <mxCell id="pe_uEWkKQalwWE7tFgN7-39" value="与hbase做diff&lt;br&gt;upsert&amp;nbsp;" style="rounded=1;whiteSpace=wrap;html=1;" vertex="1" parent="1">
          <mxGeometry x="630" y="670" width="120" height="40" as="geometry" />
        </mxCell>
        <mxCell id="pe_uEWkKQalwWE7tFgN7-44" style="edgeStyle=orthogonalEdgeStyle;rounded=1;orthogonalLoop=1;jettySize=auto;html=1;exitX=0.5;exitY=1;exitDx=0;exitDy=0;entryX=0.5;entryY=0;entryDx=0;entryDy=0;" edge="1" parent="1" target="pe_uEWkKQalwWE7tFgN7-39">
          <mxGeometry relative="1" as="geometry">
            <mxPoint x="690" y="640" as="sourcePoint" />
          </mxGeometry>
        </mxCell>
        <mxCell id="pe_uEWkKQalwWE7tFgN7-41" value="过滤&lt;br&gt;非MasterRoom" style="rounded=1;whiteSpace=wrap;html=1;" vertex="1" parent="1">
          <mxGeometry x="630" y="610" width="120" height="40" as="geometry" />
        </mxCell>
        <mxCell id="pe_uEWkKQalwWE7tFgN7-62" style="edgeStyle=orthogonalEdgeStyle;rounded=1;orthogonalLoop=1;jettySize=auto;html=1;exitX=1;exitY=0.5;exitDx=0;exitDy=0;entryX=0;entryY=0.5;entryDx=0;entryDy=0;" edge="1" parent="1" source="pe_uEWkKQalwWE7tFgN7-46" target="pe_uEWkKQalwWE7tFgN7-61">
          <mxGeometry relative="1" as="geometry" />
        </mxCell>
        <mxCell id="pe_uEWkKQalwWE7tFgN7-46" value="写入raw MQ" style="rounded=1;whiteSpace=wrap;html=1;" vertex="1" parent="1">
          <mxGeometry x="635" y="730" width="110" height="28" as="geometry" />
        </mxCell>
        <mxCell id="pe_uEWkKQalwWE7tFgN7-53" value="SynHotel" style="text;html=1;strokeColor=none;fillColor=none;align=center;verticalAlign=middle;whiteSpace=wrap;rounded=0;" vertex="1" parent="1">
          <mxGeometry x="640" y="350" width="60" height="30" as="geometry" />
        </mxCell>
        <mxCell id="pe_uEWkKQalwWE7tFgN7-56" value="listingcron-server" style="text;html=1;strokeColor=none;fillColor=none;align=center;verticalAlign=middle;whiteSpace=wrap;rounded=0;" vertex="1" parent="1">
          <mxGeometry x="360" y="160" width="100" height="20" as="geometry" />
        </mxCell>
        <mxCell id="pe_uEWkKQalwWE7tFgN7-64" style="edgeStyle=orthogonalEdgeStyle;rounded=1;orthogonalLoop=1;jettySize=auto;html=1;exitX=0.5;exitY=1;exitDx=0;exitDy=0;entryX=0.5;entryY=0;entryDx=0;entryDy=0;" edge="1" parent="1" source="pe_uEWkKQalwWE7tFgN7-58" target="pe_uEWkKQalwWE7tFgN7-63">
          <mxGeometry relative="1" as="geometry" />
        </mxCell>
        <mxCell id="pe_uEWkKQalwWE7tFgN7-67" style="edgeStyle=orthogonalEdgeStyle;rounded=1;orthogonalLoop=1;jettySize=auto;html=1;exitX=1;exitY=0.5;exitDx=0;exitDy=0;entryX=0;entryY=0.5;entryDx=0;entryDy=0;jumpStyle=arc;fillColor=#dae8fc;strokeColor=#6c8ebf;" edge="1" parent="1" source="pe_uEWkKQalwWE7tFgN7-58" target="pe_uEWkKQalwWE7tFgN7-66">
          <mxGeometry relative="1" as="geometry" />
        </mxCell>
        <mxCell id="pe_uEWkKQalwWE7tFgN7-58" value="FetchChangedHotels" style="rounded=1;whiteSpace=wrap;html=1;fillColor=#dae8fc;strokeColor=#6c8ebf;" vertex="1" parent="1">
          <mxGeometry x="630" y="810" width="125" height="40" as="geometry" />
        </mxCell>
        <mxCell id="pe_uEWkKQalwWE7tFgN7-60" style="edgeStyle=orthogonalEdgeStyle;rounded=1;orthogonalLoop=1;jettySize=auto;html=1;exitX=1;exitY=0.5;exitDx=0;exitDy=0;entryX=0;entryY=0.5;entryDx=0;entryDy=0;fillColor=#dae8fc;strokeColor=#6c8ebf;" edge="1" parent="1" source="pe_uEWkKQalwWE7tFgN7-59" target="pe_uEWkKQalwWE7tFgN7-58">
          <mxGeometry relative="1" as="geometry" />
        </mxCell>
        <mxCell id="pe_uEWkKQalwWE7tFgN7-69" style="edgeStyle=orthogonalEdgeStyle;rounded=1;jumpStyle=arc;orthogonalLoop=1;jettySize=auto;html=1;exitX=0.5;exitY=1;exitDx=0;exitDy=0;" edge="1" parent="1" source="pe_uEWkKQalwWE7tFgN7-59">
          <mxGeometry relative="1" as="geometry">
            <mxPoint x="424" y="680" as="targetPoint" />
          </mxGeometry>
        </mxCell>
        <mxCell id="pe_uEWkKQalwWE7tFgN7-59" value="拉取变换&lt;br&gt;hotellist" style="rounded=1;whiteSpace=wrap;html=1;fillColor=#dae8fc;strokeColor=#6c8ebf;" vertex="1" parent="1">
          <mxGeometry x="369.5" y="610" width="110.5" height="45" as="geometry" />
        </mxCell>
        <mxCell id="pe_uEWkKQalwWE7tFgN7-85" style="edgeStyle=orthogonalEdgeStyle;rounded=1;jumpStyle=arc;orthogonalLoop=1;jettySize=auto;html=1;exitX=1;exitY=0.5;exitDx=0;exitDy=0;entryX=0;entryY=0.5;entryDx=0;entryDy=0;" edge="1" parent="1" source="pe_uEWkKQalwWE7tFgN7-61" target="pe_uEWkKQalwWE7tFgN7-82">
          <mxGeometry relative="1" as="geometry" />
        </mxCell>
        <mxCell id="pe_uEWkKQalwWE7tFgN7-61" value="Raw MQ" style="shape=process;whiteSpace=wrap;html=1;backgroundOutline=1;" vertex="1" parent="1">
          <mxGeometry x="875" y="740" width="85" height="50" as="geometry" />
        </mxCell>
        <mxCell id="pe_uEWkKQalwWE7tFgN7-65" style="edgeStyle=orthogonalEdgeStyle;rounded=1;orthogonalLoop=1;jettySize=auto;html=1;exitX=1;exitY=0.5;exitDx=0;exitDy=0;entryX=0;entryY=0.75;entryDx=0;entryDy=0;fillColor=#dae8fc;strokeColor=#6c8ebf;" edge="1" parent="1" source="pe_uEWkKQalwWE7tFgN7-63" target="pe_uEWkKQalwWE7tFgN7-61">
          <mxGeometry relative="1" as="geometry" />
        </mxCell>
        <mxCell id="pe_uEWkKQalwWE7tFgN7-63" value="遍历下线的hotel" style="rounded=1;whiteSpace=wrap;html=1;fillColor=#dae8fc;strokeColor=#6c8ebf;" vertex="1" parent="1">
          <mxGeometry x="630" y="880" width="125" height="40" as="geometry" />
        </mxCell>
        <mxCell id="pe_uEWkKQalwWE7tFgN7-66" value="feed32" style="rounded=1;whiteSpace=wrap;html=1;fillColor=#dae8fc;strokeColor=#6c8ebf;" vertex="1" parent="1">
          <mxGeometry x="860" y="485" width="110" height="35" as="geometry" />
        </mxCell>
        <mxCell id="pe_uEWkKQalwWE7tFgN7-73" style="edgeStyle=orthogonalEdgeStyle;rounded=1;jumpStyle=arc;orthogonalLoop=1;jettySize=auto;html=1;exitX=1;exitY=0.5;exitDx=0;exitDy=0;entryX=0.007;entryY=0.598;entryDx=0;entryDy=0;entryPerimeter=0;fillColor=#dae8fc;strokeColor=#6c8ebf;" edge="1" parent="1" source="pe_uEWkKQalwWE7tFgN7-68" target="pe_uEWkKQalwWE7tFgN7-14">
          <mxGeometry relative="1" as="geometry" />
        </mxCell>
        <mxCell id="pe_uEWkKQalwWE7tFgN7-68" value="异步同步&lt;br&gt;updated 和 new hotel" style="rounded=1;whiteSpace=wrap;html=1;fillColor=#dae8fc;strokeColor=#6c8ebf;" vertex="1" parent="1">
          <mxGeometry x="370.5" y="760" width="109" height="52" as="geometry" />
        </mxCell>
        <mxCell id="pe_uEWkKQalwWE7tFgN7-71" style="edgeStyle=orthogonalEdgeStyle;rounded=1;jumpStyle=arc;orthogonalLoop=1;jettySize=auto;html=1;exitX=0.5;exitY=1;exitDx=0;exitDy=0;" edge="1" parent="1" source="pe_uEWkKQalwWE7tFgN7-70" target="pe_uEWkKQalwWE7tFgN7-68">
          <mxGeometry relative="1" as="geometry" />
        </mxCell>
        <mxCell id="pe_uEWkKQalwWE7tFgN7-70" value="遍历changed&amp;nbsp;&lt;br&gt;hotellist" style="rounded=1;whiteSpace=wrap;html=1;fillColor=#dae8fc;strokeColor=#6c8ebf;" vertex="1" parent="1">
          <mxGeometry x="371" y="680" width="109" height="50" as="geometry" />
        </mxCell>
        <mxCell id="pe_uEWkKQalwWE7tFgN7-74" value="IncrementSyncHotels：" style="text;html=1;strokeColor=none;fillColor=none;align=center;verticalAlign=middle;whiteSpace=wrap;rounded=0;" vertex="1" parent="1">
          <mxGeometry x="360" y="570" width="110" height="30" as="geometry" />
        </mxCell>
        <mxCell id="pe_uEWkKQalwWE7tFgN7-75" value="&lt;span style=&quot;color: rgb(0, 0, 0); font-family: Helvetica; font-size: 12px; font-style: normal; font-variant-ligatures: normal; font-variant-caps: normal; font-weight: 400; letter-spacing: normal; orphans: 2; text-align: center; text-indent: 0px; text-transform: none; widows: 2; word-spacing: 0px; -webkit-text-stroke-width: 0px; background-color: rgb(248, 249, 250); text-decoration-thickness: initial; text-decoration-style: initial; text-decoration-color: initial; float: none; display: inline !important;&quot;&gt;FullSyncHotels：&lt;/span&gt;" style="text;whiteSpace=wrap;html=1;" vertex="1" parent="1">
          <mxGeometry x="350" y="190" width="90" height="30" as="geometry" />
        </mxCell>
        <mxCell id="pe_uEWkKQalwWE7tFgN7-76" value="&lt;span style=&quot;color: rgb(0, 0, 0); font-family: Helvetica; font-size: 12px; font-style: normal; font-variant-ligatures: normal; font-variant-caps: normal; font-weight: 400; letter-spacing: normal; orphans: 2; text-align: center; text-indent: 0px; text-transform: none; widows: 2; word-spacing: 0px; -webkit-text-stroke-width: 0px; background-color: rgb(248, 249, 250); text-decoration-thickness: initial; text-decoration-style: initial; text-decoration-color: initial; float: none; display: inline !important;&quot;&gt;itemfetch-server&lt;/span&gt;" style="text;whiteSpace=wrap;html=1;" vertex="1" parent="1">
          <mxGeometry x="620" y="250" width="100" height="30" as="geometry" />
        </mxCell>
        <mxCell id="pe_uEWkKQalwWE7tFgN7-77" value="hub/supplier" style="text;html=1;strokeColor=none;fillColor=none;align=center;verticalAlign=middle;whiteSpace=wrap;rounded=0;" vertex="1" parent="1">
          <mxGeometry x="860" y="287" width="60" height="30" as="geometry" />
        </mxCell>
        <mxCell id="pe_uEWkKQalwWE7tFgN7-88" value="消费processedMQ" style="rounded=1;whiteSpace=wrap;html=1;strokeColor=#1A1A1A;fillColor=#FFFFFF;" vertex="1" parent="1">
          <mxGeometry x="1325" y="560" width="120" height="37" as="geometry" />
        </mxCell>
        <mxCell id="pe_uEWkKQalwWE7tFgN7-89" value="补全依赖信息" style="rounded=1;whiteSpace=wrap;html=1;strokeColor=#1A1A1A;fillColor=#FFFFFF;" vertex="1" parent="1">
          <mxGeometry x="1325" y="620" width="120" height="30.5" as="geometry" />
        </mxCell>
        <mxCell id="pe_uEWkKQalwWE7tFgN7-111" style="edgeStyle=orthogonalEdgeStyle;rounded=1;jumpStyle=arc;orthogonalLoop=1;jettySize=auto;html=1;exitX=1;exitY=0.5;exitDx=0;exitDy=0;entryX=0;entryY=0.5;entryDx=0;entryDy=0;entryPerimeter=0;" edge="1" parent="1" source="pe_uEWkKQalwWE7tFgN7-90" target="pe_uEWkKQalwWE7tFgN7-109">
          <mxGeometry relative="1" as="geometry" />
        </mxCell>
        <mxCell id="pe_uEWkKQalwWE7tFgN7-90" value="Upsert DB" style="rounded=1;whiteSpace=wrap;html=1;strokeColor=#1A1A1A;fillColor=#FFFFFF;" vertex="1" parent="1">
          <mxGeometry x="1325" y="668" width="120" height="40" as="geometry" />
        </mxCell>
        <mxCell id="pe_uEWkKQalwWE7tFgN7-112" style="edgeStyle=orthogonalEdgeStyle;rounded=1;jumpStyle=arc;orthogonalLoop=1;jettySize=auto;html=1;exitX=1;exitY=0.5;exitDx=0;exitDy=0;entryX=0;entryY=0;entryDx=0;entryDy=41.25;entryPerimeter=0;" edge="1" parent="1" source="pe_uEWkKQalwWE7tFgN7-91" target="pe_uEWkKQalwWE7tFgN7-110">
          <mxGeometry relative="1" as="geometry" />
        </mxCell>
        <mxCell id="pe_uEWkKQalwWE7tFgN7-91" value="Upsert ES" style="rounded=1;whiteSpace=wrap;html=1;strokeColor=#1A1A1A;fillColor=#FFFFFF;" vertex="1" parent="1">
          <mxGeometry x="1325" y="728" width="120" height="40" as="geometry" />
        </mxCell>
        <mxCell id="pe_uEWkKQalwWE7tFgN7-96" style="edgeStyle=orthogonalEdgeStyle;rounded=1;jumpStyle=arc;orthogonalLoop=1;jettySize=auto;html=1;exitX=1;exitY=0.5;exitDx=0;exitDy=0;entryX=0;entryY=0.556;entryDx=0;entryDy=0;entryPerimeter=0;" edge="1" parent="1" source="pe_uEWkKQalwWE7tFgN7-92" target="pe_uEWkKQalwWE7tFgN7-95">
          <mxGeometry relative="1" as="geometry" />
        </mxCell>
        <mxCell id="pe_uEWkKQalwWE7tFgN7-92" value="Processed MQ" style="shape=process;whiteSpace=wrap;html=1;backgroundOutline=1;" vertex="1" parent="1">
          <mxGeometry x="1190" y="640" width="90" height="40" as="geometry" />
        </mxCell>
        <mxCell id="pe_uEWkKQalwWE7tFgN7-97" value="onlinedatasync-server" style="text;html=1;strokeColor=none;fillColor=none;align=center;verticalAlign=middle;whiteSpace=wrap;rounded=0;" vertex="1" parent="1">
          <mxGeometry x="1310" y="520" width="150" height="30" as="geometry" />
        </mxCell>
        <mxCell id="pe_uEWkKQalwWE7tFgN7-98" value="" style="group" vertex="1" connectable="0" parent="1">
          <mxGeometry x="1000" y="570" width="160" height="270" as="geometry" />
        </mxCell>
        <mxCell id="pe_uEWkKQalwWE7tFgN7-82" value="" style="rounded=0;whiteSpace=wrap;html=1;strokeColor=#d6b656;fillColor=#fff2cc;" vertex="1" parent="pe_uEWkKQalwWE7tFgN7-98">
          <mxGeometry width="150" height="270" as="geometry" />
        </mxCell>
        <mxCell id="pe_uEWkKQalwWE7tFgN7-78" value="消费rawMQ" style="rounded=1;whiteSpace=wrap;html=1;strokeColor=#1A1A1A;fillColor=#FFFFFF;" vertex="1" parent="pe_uEWkKQalwWE7tFgN7-98">
          <mxGeometry x="20" y="35" width="110" height="40" as="geometry" />
        </mxCell>
        <mxCell id="pe_uEWkKQalwWE7tFgN7-79" value="判断是否需要新增shopee" style="rounded=1;whiteSpace=wrap;html=1;strokeColor=#1A1A1A;fillColor=#FFFFFF;" vertex="1" parent="pe_uEWkKQalwWE7tFgN7-98">
          <mxGeometry x="20" y="95" width="110" height="40" as="geometry" />
        </mxCell>
        <mxCell id="pe_uEWkKQalwWE7tFgN7-80" value="mapping" style="rounded=1;whiteSpace=wrap;html=1;strokeColor=#1A1A1A;fillColor=#FFFFFF;" vertex="1" parent="pe_uEWkKQalwWE7tFgN7-98">
          <mxGeometry x="20" y="155" width="110" height="30" as="geometry" />
        </mxCell>
        <mxCell id="pe_uEWkKQalwWE7tFgN7-84" value="构造shopee content" style="rounded=1;whiteSpace=wrap;html=1;strokeColor=#1A1A1A;fillColor=#FFFFFF;" vertex="1" parent="pe_uEWkKQalwWE7tFgN7-98">
          <mxGeometry x="20" y="205" width="110" height="40" as="geometry" />
        </mxCell>
        <mxCell id="pe_uEWkKQalwWE7tFgN7-86" value="realtimecomputing-server" style="text;html=1;strokeColor=none;fillColor=none;align=center;verticalAlign=middle;whiteSpace=wrap;rounded=0;" vertex="1" parent="pe_uEWkKQalwWE7tFgN7-98">
          <mxGeometry width="160" height="35" as="geometry" />
        </mxCell>
        <mxCell id="pe_uEWkKQalwWE7tFgN7-102" style="edgeStyle=orthogonalEdgeStyle;rounded=1;jumpStyle=arc;orthogonalLoop=1;jettySize=auto;html=1;exitX=1;exitY=0.5;exitDx=0;exitDy=0;entryX=0;entryY=0.5;entryDx=0;entryDy=0;" edge="1" parent="1" source="pe_uEWkKQalwWE7tFgN7-99" target="pe_uEWkKQalwWE7tFgN7-101">
          <mxGeometry relative="1" as="geometry" />
        </mxCell>
        <mxCell id="pe_uEWkKQalwWE7tFgN7-99" value="image-MQ" style="shape=process;whiteSpace=wrap;html=1;backgroundOutline=1;strokeColor=#1A1A1A;fillColor=#FFFFFF;" vertex="1" parent="1">
          <mxGeometry x="1100" y="880" width="90" height="40" as="geometry" />
        </mxCell>
        <mxCell id="pe_uEWkKQalwWE7tFgN7-100" style="edgeStyle=orthogonalEdgeStyle;rounded=1;jumpStyle=arc;orthogonalLoop=1;jettySize=auto;html=1;exitX=0.5;exitY=1;exitDx=0;exitDy=0;entryX=0;entryY=0.5;entryDx=0;entryDy=0;" edge="1" parent="1" source="pe_uEWkKQalwWE7tFgN7-82" target="pe_uEWkKQalwWE7tFgN7-99">
          <mxGeometry relative="1" as="geometry" />
        </mxCell>
        <mxCell id="pe_uEWkKQalwWE7tFgN7-104" style="edgeStyle=orthogonalEdgeStyle;rounded=1;jumpStyle=arc;orthogonalLoop=1;jettySize=auto;html=1;exitX=0.5;exitY=0;exitDx=0;exitDy=0;entryX=0.5;entryY=1;entryDx=0;entryDy=0;" edge="1" parent="1" source="pe_uEWkKQalwWE7tFgN7-101" target="pe_uEWkKQalwWE7tFgN7-92">
          <mxGeometry relative="1" as="geometry" />
        </mxCell>
        <mxCell id="pe_uEWkKQalwWE7tFgN7-107" style="edgeStyle=orthogonalEdgeStyle;rounded=1;jumpStyle=arc;orthogonalLoop=1;jettySize=auto;html=1;exitX=1;exitY=0.5;exitDx=0;exitDy=0;entryX=0;entryY=0;entryDx=0;entryDy=37.5;entryPerimeter=0;" edge="1" parent="1" source="pe_uEWkKQalwWE7tFgN7-101" target="pe_uEWkKQalwWE7tFgN7-105">
          <mxGeometry relative="1" as="geometry" />
        </mxCell>
        <mxCell id="pe_uEWkKQalwWE7tFgN7-108" style="edgeStyle=orthogonalEdgeStyle;rounded=1;jumpStyle=arc;orthogonalLoop=1;jettySize=auto;html=1;exitX=1;exitY=0.75;exitDx=0;exitDy=0;entryX=0;entryY=0;entryDx=0;entryDy=37.5;entryPerimeter=0;" edge="1" parent="1" source="pe_uEWkKQalwWE7tFgN7-101" target="pe_uEWkKQalwWE7tFgN7-106">
          <mxGeometry relative="1" as="geometry" />
        </mxCell>
        <mxCell id="pe_uEWkKQalwWE7tFgN7-101" value="imageprocessing-server" style="rounded=0;whiteSpace=wrap;html=1;strokeColor=#d6b656;fillColor=#fff2cc;" vertex="1" parent="1">
          <mxGeometry x="1220" y="870" width="140" height="60" as="geometry" />
        </mxCell>
        <mxCell id="pe_uEWkKQalwWE7tFgN7-105" value="S3" style="shape=cylinder3;whiteSpace=wrap;html=1;boundedLbl=1;backgroundOutline=1;size=15;strokeColor=#1A1A1A;fillColor=#FFFFFF;" vertex="1" parent="1">
          <mxGeometry x="1410" y="820" width="60" height="60" as="geometry" />
        </mxCell>
        <mxCell id="pe_uEWkKQalwWE7tFgN7-106" value="CDN" style="shape=cylinder3;whiteSpace=wrap;html=1;boundedLbl=1;backgroundOutline=1;size=15;strokeColor=#1A1A1A;fillColor=#FFFFFF;" vertex="1" parent="1">
          <mxGeometry x="1410" y="890" width="60" height="60" as="geometry" />
        </mxCell>
        <mxCell id="pe_uEWkKQalwWE7tFgN7-109" value="hotelDB" style="shape=cylinder3;whiteSpace=wrap;html=1;boundedLbl=1;backgroundOutline=1;size=15;strokeColor=#1A1A1A;fillColor=#FFFFFF;" vertex="1" parent="1">
          <mxGeometry x="1495" y="545" width="60" height="80" as="geometry" />
        </mxCell>
        <mxCell id="pe_uEWkKQalwWE7tFgN7-110" value="ES" style="shape=cylinder3;whiteSpace=wrap;html=1;boundedLbl=1;backgroundOutline=1;size=15;strokeColor=#1A1A1A;fillColor=#FFFFFF;" vertex="1" parent="1">
          <mxGeometry x="1495" y="660" width="60" height="65" as="geometry" />
        </mxCell>
      </root>
    </mxGraphModel>
  </diagram>
</mxfile>
